<?xml version="1.0" encoding="utf-8"?>
<!-- Generator: Adobe Illustrator 18.0.0, SVG Export Plug-In . SVG Version: 6.00 Build 0)  -->
<!DOCTYPE svg PUBLIC "-//W3C//DTD SVG 1.1//EN" "http://www.w3.org/Graphics/SVG/1.1/DTD/svg11.dtd">
<svg version="1.1" id="Layer_1" xmlns="http://www.w3.org/2000/svg" xmlns:xlink="http://www.w3.org/1999/xlink" x="0px" y="0px"
	 viewBox="0 0 40 40" enable-background="new 0 0 40 40" xml:space="preserve">
<path fill="#5D5E5E" d="M33.3,25.9v9.5c0,0.9-0.7,1.6-1.6,1.6H24c-0.4,0-0.8-0.4-0.8-0.8v-7.4c0-0.4-0.4-0.8-0.8-0.8h-4.8
	c-0.4,0-0.8,0.4-0.8,0.8v7.4c0,0.4-0.4,0.8-0.8,0.8H8.3c-0.9,0-1.6-0.7-1.6-1.6v-9.5c0-0.2,0.1-0.5,0.3-0.6L19.5,15
	c0.3-0.2,0.7-0.2,1,0L33,25.3C33.2,25.5,33.3,25.7,33.3,25.9L33.3,25.9z M38.8,21.9l-5.6-4.6V8.1c0-0.4-0.4-0.8-0.8-0.8h-3.7
	c-0.4,0-0.8,0.4-0.8,0.8v4.8L22,8c-1.2-1-2.9-1-4.1,0L1.2,21.9c-0.3,0.3-0.4,0.8-0.1,1.1l1.7,2.1c0.3,0.3,0.8,0.4,1.1,0.1l15.6-12.9
	c0.3-0.2,0.7-0.2,1,0l15.6,12.9c0.3,0.3,0.8,0.2,1.1-0.1L39,23C39.2,22.7,39.2,22.2,38.8,21.9z"/>
</svg>
