<?xml version="1.0" encoding="utf-8"?>
<!-- Generator: Adobe Illustrator 23.0.2, SVG Export Plug-In . SVG Version: 6.00 Build 0)  -->
<svg version="1.1" id="Layer_1" xmlns="http://www.w3.org/2000/svg" xmlns:xlink="http://www.w3.org/1999/xlink" x="0px" y="0px"
	 viewBox="0 0 238.6 146.2" style="enable-background:new 0 0 238.6 146.2;" xml:space="preserve">
<style type="text/css">
	.st0{fill:#462C3F;}
	.st1{fill:#C59EBC;}
</style>
<g>
	<g>
		<g>
			<path class="st0" d="M82.4,47.8c-1.8,2.8-4.6,6.2-8.2,10.2s-7,7.6-10.2,10.5l0-2.7c0-5.3-0.4-10.5-1.1-15.6l-0.1-0.6l-0.9,1.1
				c-0.5,0.5-1.3,1.5-2.5,3c-2,2.3-3.4,4-4.2,5l-7,8.8l-0.5,0.6c0-5.5-0.3-11.8-0.9-18.9c-0.2-3-0.5-4.9-0.7-5.7
				c-0.2-0.8-0.7-1.2-1.4-1.2c-0.4,0-1.1,0.3-2,0.8l-0.5-0.9c0.3-0.2,0.4-0.3,0.5-0.3l3-1.7c0.6-0.3,1.5-0.9,2.8-1.7l0.7-0.4
				c1.1,5.9,1.7,14,1.7,24.4c0.9-1,2.5-3,4.9-6c1.7-2.1,3.9-4.8,6.8-8.1l0.3-0.3l-0.1-0.6c-5,0-7.7,2.1-8,6.3
				c-0.5-0.4-0.7-0.9-0.7-1.5c0-1.4,0.9-2.9,2.6-4.4s3.6-2.4,5.5-2.6c-1.6-4.9-4.3-8.7-8-11.5s-8.2-4.1-13.2-4.1
				c-5.8,0-10.6,1.7-14.3,5.1s-5.5,7.8-5.5,13.2c0,5,1.6,9.2,4.9,12.5s7.4,5,12.3,5c0.7,0,1.6-0.1,2.6-0.3l0.2,0.5
				c-1.7,0.6-3.7,0.9-6.1,0.9c-4.8,0-8.8-1.6-11.9-4.8c-3.1-3.2-4.7-7.2-4.7-12.2c0-6.3,2.3-11.5,7-15.5s10.5-6.1,17.7-6.1
				c5.9,0,10.7,1.5,14.6,4.4c3.8,2.9,6.5,7.2,8,12.8C71,39.3,75.9,34.8,80.2,32s8.3-4.1,12.3-4.1c2.1,0,3.7,0.6,5.1,1.7
				c1.3,1.1,2,2.5,2,4.3c0,3.1-1.6,6-4.8,8.6C91.5,45,87.4,46.8,82.4,47.8z M80.1,48c-1.8,0.2-3.7,0.2-5.5,0.2s-4.6-0.2-8.3-0.5
				l-0.7-0.1c0.9,3.9,1.4,8.9,1.4,15.2v1c2.4-2.3,4.9-4.9,7.4-7.9C76.9,53,78.8,50.3,80.1,48z M81.2,46c0.8-1.4,1.2-2.6,1.2-3.7
				c0-1-0.8-1.5-2.5-1.6l-0.6,0v-1h7.2c-0.4,1.9-1.3,3.9-2.6,6c3.9-0.7,6.7-1.7,8.4-2.9c2.9-2,4.3-4.6,4.3-7.6
				c0-1.5-0.6-2.8-1.7-3.8c-1.1-1-2.6-1.4-4.5-1.4c-6.6,0-14.4,5.1-23.6,15.4c4.4,0.4,8.2,0.6,11.4,0.6L81.2,46z"/>
		</g>
		<g>
			<path class="st0" d="M107.2,54.7c0.3,0.5,0.4,1,0.4,1.4c0,1.8-1.3,3.9-3.7,6.2c-3.6,3.4-6.7,5.1-9.3,5.1c-2.2,0-3.3-1.2-3.3-3.7
				c0-2.8,0.9-5.8,2.6-8.9s3.9-5.6,6.6-7.6c3.3-2.4,6.2-3.7,8.7-3.7c1.5,0,2.2,0.5,2.2,1.6c0,0.7-0.4,1.6-1.1,2.6s-1.6,1.9-2.7,2.7
				c-1,0.7-2.3,1.4-3.8,2s-2.7,0.9-3.5,0.9c-0.9,0-1.5-0.5-1.8-1.5c0.8,0.1,1.4,0.2,1.9,0.2c1.9,0,3.6-0.5,5.2-1.6
				c1.6-1.1,2.4-2.2,2.4-3.5c0-0.9-0.6-1.3-1.7-1.3c-2.1,0-4.2,1.3-6.4,3.8c-1.5,1.8-2.8,3.9-3.8,6.3c-1,2.4-1.5,4.5-1.5,6.4
				c0,1.9,0.8,2.9,2.4,2.9c1.8,0,3.6-1,5.5-2.9C104.3,60.3,105.9,57.8,107.2,54.7z"/>
		</g>
		<g>
			<path class="st0" d="M124.7,28.6c0,2.3-1.5,6.9-4.6,13.7c-5.3,12-7.9,18.9-8,20.8c0,0.8,0.3,1.3,1,1.2c0.5,0,1.5-0.6,2.9-1.7
				l0.3-0.3l0.5,0.7c-3,2.6-5.2,4-6.6,4c-1.1,0-1.7-0.8-1.7-2.4c0-1.2,0.4-2.9,1.2-5.1s2.6-6.8,5.6-13.8l2.7-6.4
				c1.6-3.8,2.4-6.1,2.4-6.7c0-0.5-0.3-0.8-0.9-0.8c-0.2,0-0.7,0.1-1.5,0.4c-0.1,0-0.2,0.1-0.4,0.1l-0.3-0.8l0.4-0.2
				C121,30.2,123.3,29.2,124.7,28.6z"/>
		</g>
		<g>
			<path class="st0" d="M134.1,28.6c0,2.3-1.5,6.9-4.6,13.7c-5.3,12-7.9,18.9-8,20.8c0,0.8,0.3,1.3,1,1.2c0.5,0,1.5-0.6,2.9-1.7
				l0.3-0.3l0.5,0.7c-3,2.6-5.2,4-6.6,4c-1.1,0-1.7-0.8-1.7-2.4c0-1.2,0.4-2.9,1.2-5.1s2.6-6.8,5.6-13.8l2.7-6.4
				c1.6-3.8,2.4-6.1,2.4-6.7c0-0.5-0.3-0.8-0.9-0.8c-0.2,0-0.7,0.1-1.5,0.4c-0.1,0-0.2,0.1-0.4,0.1l-0.3-0.8l0.4-0.2
				C130.4,30.2,132.7,29.2,134.1,28.6z"/>
		</g>
		<g>
			<path class="st0" d="M146,63.1l0.4,0.8c-2.3,1.6-4.9,2.7-8,3.4c0.4-3.1,2.2-7.8,5.4-14.1l1.8-3.5c0.6-1.2,0.9-2,0.9-2.3
				c0-0.5-0.2-0.8-0.6-0.8c-0.6,0-1.7,0.7-3.3,2c-1.6,1.3-3.2,2.8-4.7,4.5c-3.2,3.6-5.9,7.8-8,12.8c-0.9,0.2-2.1,0.7-3.7,1.3
				c1.7-3.5,3.5-7.5,5.2-11.9s2.6-7,2.6-7.8c0-0.7-0.3-1-0.8-1c-0.3,0-0.9,0.1-1.8,0.4c-0.1,0-0.2,0-0.3,0.1l-0.2-0.9
				c2.6-0.8,5-1.6,7.1-2.5l0.4-0.2c0,0.2,0.1,0.4,0.1,0.5c0,1.7-1.2,5.2-3.7,10.6l-0.4,0.8l0.5-0.5c3.1-3.5,5.9-6.3,8.5-8.3
				c2.6-2,4.6-3,6.1-3c0.9,0,1.4,0.5,1.4,1.4c0,1-1.2,3.8-3.7,8.6c-2.9,5.7-4.4,8.9-4.4,9.6c0,0.5,0.3,0.8,0.8,0.8
				c0.6,0,1.3-0.3,2.3-0.9L146,63.1z"/>
		</g>
		<g>
			<path class="st0" d="M165.1,54.7c0.3,0.5,0.4,1,0.4,1.4c0,1.8-1.3,3.9-3.7,6.2c-3.6,3.4-6.7,5.1-9.3,5.1c-2.2,0-3.3-1.2-3.3-3.7
				c0-2.8,0.9-5.8,2.6-8.9s3.9-5.6,6.6-7.6c3.3-2.4,6.2-3.7,8.7-3.7c1.5,0,2.2,0.5,2.2,1.6c0,0.7-0.4,1.6-1.1,2.6s-1.6,1.9-2.7,2.7
				c-1,0.7-2.3,1.4-3.8,2s-2.7,0.9-3.5,0.9c-0.9,0-1.5-0.5-1.8-1.5c0.8,0.1,1.4,0.2,1.9,0.2c1.9,0,3.6-0.5,5.2-1.6
				c1.6-1.1,2.4-2.2,2.4-3.5c0-0.9-0.6-1.3-1.7-1.3c-2.1,0-4.2,1.3-6.4,3.8c-1.5,1.8-2.8,3.9-3.8,6.3c-1,2.4-1.5,4.5-1.5,6.4
				c0,1.9,0.8,2.9,2.4,2.9c1.8,0,3.6-1,5.5-2.9C162.2,60.3,163.8,57.8,165.1,54.7z"/>
		</g>
		<g>
			<path class="st0" d="M182.9,43.9l-0.3,0.5l-1.4,2.3c-0.5,0.8-1,1.7-1.6,2.5l-0.3,0.5l-0.7-0.5c0.1-0.2,0.2-0.4,0.2-0.5
				c0.4-0.8,0.6-1.4,0.6-1.7c0-0.7-0.6-1.1-1.9-1.1c-1.1,0-2.1,0.4-3,1.3s-1.3,1.8-1.3,3c0,0.6,0.2,1.3,0.6,2.1l1.4,2.9
				c0.4,1,0.7,2,0.7,3.2c0,2.3-1.3,4.4-3.7,6.4c-2.1,1.7-4.1,2.6-5.7,2.6c-0.9,0-1.7-0.2-2.4-0.7s-0.9-1.1-0.9-1.8
				c0-0.9,0.2-1.7,0.7-2.6c1.2,2,2.6,3,4.3,3c1.4,0,2.6-0.5,3.6-1.4c1.1-0.9,1.6-2,1.6-3.3c0-0.7-0.2-1.4-0.6-2.3l-1.7-3.6
				c-0.3-0.7-0.5-1.5-0.5-2.4c0-1.5,0.9-3.3,2.6-5.2c1.2-1.3,2.3-2.2,3.5-2.7s2.6-0.8,4.3-0.8C181.7,43.7,182.3,43.8,182.9,43.9z"/>
		</g>
		<g>
			<path class="st0" d="M195.9,43.9l-0.3,0.5l-1.4,2.3c-0.5,0.8-1,1.7-1.6,2.5l-0.3,0.5l-0.7-0.5c0.1-0.2,0.2-0.4,0.2-0.5
				c0.4-0.8,0.6-1.4,0.6-1.7c0-0.7-0.6-1.1-1.9-1.1c-1.1,0-2.1,0.4-3,1.3s-1.3,1.8-1.3,3c0,0.6,0.2,1.3,0.6,2.1l1.4,2.9
				c0.4,1,0.7,2,0.7,3.2c0,2.3-1.3,4.4-3.7,6.4c-2.1,1.7-4.1,2.6-5.7,2.6c-0.9,0-1.7-0.2-2.4-0.7s-0.9-1.1-0.9-1.8
				c0-0.9,0.2-1.7,0.7-2.6c1.2,2,2.6,3,4.3,3c1.4,0,2.6-0.5,3.6-1.4c1.1-0.9,1.6-2,1.6-3.3c0-0.7-0.2-1.4-0.6-2.3l-1.7-3.6
				c-0.3-0.7-0.5-1.5-0.5-2.4c0-1.5,0.9-3.3,2.6-5.2c1.2-1.3,2.3-2.2,3.5-2.7s2.6-0.8,4.3-0.8C194.6,43.7,195.3,43.8,195.9,43.9z"/>
		</g>
	</g>
	<path class="st0" d="M79,93.5c-1,0.9-1.5,2.1-1.5,3.6c0,0.4,0,0.7,0.1,1.1c-0.7-0.1-1.4-0.2-2.2-0.3c-1.5-0.2-3-0.5-4.5-0.7
		c-8-1.4-16-3.3-23.8-5.8c-7.8-2.5-15.4-5.7-22.6-9.8c-7.1-4.1-14.1-9.2-19.1-16.2C3,62,1.1,57.9,0.4,53.5c-0.7-4.3-0.4-8.9,1.2-13
		c1.5-4.1,4-7.7,6.8-10.9c2.8-3.1,6.1-5.8,9.5-8.2c3.4-2.4,7-4.4,10.6-6.2c3.7-1.8,7.4-3.4,11.3-4.8c7.6-2.8,15.5-4.9,23.5-6.5
		c8-1.6,16-2.6,24.1-3.2c8.1-0.7,16.1-0.8,24.2-0.6C95.4,0.7,79.3,2.4,63.8,6.3c-7.8,1.9-15.5,4.2-22.9,7.2
		c-7.3,3-14.5,6.5-20.9,11.2C13.8,29.2,8.2,35,5.6,42c-1.3,3.5-1.5,7.2-0.8,10.8c0.7,3.6,2.3,7,4.5,10c4.5,6.1,10.8,10.9,17.7,14.7
		c6.8,3.8,14.2,6.8,21.7,9.2c9.5,3.1,19.2,5.2,29.1,6.7C78.2,93.4,78.6,93.5,79,93.5z"/>
	<path class="st0" d="M85.7,94.4c-0.7,0.8-1,1.8-1,3c0,0.3,0,0.8,0.1,1.3c-0.7-0.4-1.1-1.1-1.1-1.9c0-0.9,0.4-1.7,1.2-2.6
		C85.1,94.3,85.4,94.4,85.7,94.4z"/>
	<path class="st0" d="M98.1,99.2c0.1-0.1,0.3-0.3,0.4-0.4c0.2,0.2,0.4,0.4,0.7,0.6c-0.2,0.1-0.3,0.3-0.5,0.4
		c-0.1,0.1-0.2,0.2-0.3,0.3c-0.4,0-0.7,0-1.1-0.1C97.6,99.8,97.8,99.5,98.1,99.2z"/>
	<path class="st0" d="M99,96.2l1.2,1.1c-0.6,0.5-1.1,1-1.7,1.5c-0.3-0.3-0.7-0.6-1-0.9l-0.3-0.3c-0.9,0.8-1.8,1.6-2.7,2.3
		c-0.3,0-0.7,0-1-0.1c1.1-0.8,2.1-1.7,3-2.7c-0.7-0.7-1.5-1.4-2.4-1.9c0.5,0,0.9,0.1,1.4,0.1c1.2,0.1,2.4,0.2,3.7,0.2
		c0,0.1-0.1,0.1-0.1,0.2l-0.3,0.3L99,96.2z"/>
	<path class="st0" d="M104.1,95.8c-0.3,0.2-0.7,0.4-1.1,0.7c-0.3,0.2-0.6,0.4-0.9,0.6c-0.4,0.3-0.7,0.5-1.1,0.8c0,0,0,0-0.1,0.1
		c0,0,0,0,0,0c-0.2-0.2-0.4-0.3-0.5-0.5l-0.2-0.2c0.7-0.6,1.3-1.1,2-1.6c0,0,0,0,0,0C102.8,95.7,103.4,95.8,104.1,95.8z"/>
	<path class="st0" d="M220.8,49.1c0.1,4-0.9,8.1-2.8,11.7c-1.8,3.7-4.4,6.9-7.3,9.8c-4.7,4.6-10.2,8.4-16,11.5
		c-1.4,0.8-2.7,1.5-4.1,2.2c-0.1,0.1-0.3,0.1-0.4,0.2c-1.5-0.3-3.1-0.5-4.6-0.7c1.4-0.5,2.7-1.1,4-1.7c0.5-0.2,0.9-0.4,1.4-0.6
		c6.8-3.1,13.3-6.8,18.9-11.8c2.9-2.7,5.6-5.7,7.6-9.2C219.4,57.1,220.7,53.2,220.8,49.1z"/>
	<g>
		<g>
			<g>
				<path class="st1" d="M144.8,105.2c-0.2,0.3-0.6,0.8-1.1,1.4c-0.2,0.3-0.6,0.8-1.1,1.4c-0.8,1.1-1.5,1.9-2,2.4
					c0.6-0.1,1.2-0.2,2-0.4l2.8-0.7c1-0.2,1.9-0.3,2.8-0.3c1.6,0,2.9,0.5,4,1.4s1.6,2.2,1.6,3.6c0,2.1-0.9,3.9-2.6,5.5
					c-1.8,1.6-3.8,2.3-6.1,2.3c-1.7,0-3.2-0.4-4.6-1.2c-1.3-0.8-3-2.4-5.1-4.8L135,116c-4.4,3.8-8.3,5.7-12,5.7
					c-3,0-5.5-0.9-7.4-2.8s-2.9-4.3-2.9-7.1c0-3.2,1.2-5.6,3.6-7.4c1.9-1.4,4-2.2,6.3-2.2c1.9,0,3.7,0.7,5.5,2
					c1.1,0.9,3,2.9,5.7,6.3c0.9,1.1,1.7,2,2.3,2.8l0.4,0.4c0.6-0.6,1.1-1.1,1.5-1.5c-1.7-1.1-2.6-2.7-2.6-4.7c0-1.2,0.6-1.8,1.9-1.8
					c-0.8,0.9-1.1,1.7-1.1,2.4c0,0.7,0.3,1.2,0.8,1.7c0.6,0.4,1.3,0.7,2.1,0.7c0.1,0,0.3,0,0.5,0l0.1-0.1c0.6-0.7,1.5-1.8,2.8-3.4
					c1.3-1.6,2.1-2.7,2.5-3.3l0.6-0.9l0.3-0.4c0.1-0.1,0.1-0.2,0.2-0.3l0.6,0.2c-0.2,0.4-0.3,0.8-0.3,1.4c0,0.8,0.4,1.6,1.1,2.3
					s1.4,1.1,2.2,1.1c0.8,0,1.4-0.3,2-1.1c0.6-0.7,0.8-1.6,0.8-2.5c0-1.4-0.5-2.5-1.5-3.3c-1-0.8-2.5-1.2-4.4-1.2
					c-2.1,0-6.2,0.4-12.4,1.2c-2.8,0.4-4.9,0.6-6.3,0.6c-1.2,0-2.1-0.2-2.7-0.6l0.1-0.3c0.4-1.3,0.7-2.6,1-3.8l0.7,0.1
					c-0.1,0.5-0.2,0.9-0.2,1.2c0,0.8,0.8,1.2,2.4,1.2c1,0,2.9-0.2,5.8-0.6c5.7-0.8,9.6-1.1,11.7-1.1c2.2,0,3.9,0.5,5.2,1.4
					c1.2,0.9,1.8,2.2,1.8,3.9c0,2.7-1.3,4.7-3.8,5.9c-1,0.4-1.6,0.7-2,0.7C147.4,108.6,146.3,107.5,144.8,105.2z M135,115.2
					l-0.2-0.2c-0.7-0.8-1.6-1.8-2.7-3.2c-2.7-3.3-4.8-5.6-6.3-6.7s-3.2-1.8-4.8-1.8c-2,0-3.7,0.7-5.1,2.2c-1.4,1.5-2.1,3.3-2.1,5.5
					c0,2.5,1,4.7,3.1,6.6s4.5,2.8,7.4,2.8C127.7,120.5,131.2,118.7,135,115.2z M137,114.2c0.9,1.1,2.1,2.2,3.5,3.5
					c2.1,1.9,4,2.8,5.9,2.8c1.7,0,3.2-0.6,4.4-1.8s1.9-2.5,1.9-4.1c0-1.1-0.4-2.1-1.1-2.8c-0.8-0.7-1.7-1.1-2.9-1.1
					c-0.9,0-2.7,0.3-5.3,1c-1.6,0.4-2.8,0.6-3.7,0.6c-0.3,0-0.6,0-0.9-0.1c-0.1,0.1-0.1,0.2-0.2,0.2l-0.7,0.7l-0.8,0.8
					C137.2,114.1,137.1,114.1,137,114.2z"/>
			</g>
			<g>
				<path class="st1" d="M164.7,113.7c0.2,0.3,0.3,0.6,0.3,0.9c0,1.1-0.8,2.4-2.4,3.9c-2.3,2.2-4.2,3.2-5.8,3.2
					c-1.4,0-2.1-0.8-2.1-2.3c0-1.8,0.5-3.6,1.6-5.6s2.5-3.5,4.1-4.8c2.1-1.5,3.9-2.3,5.5-2.3c0.9,0,1.4,0.3,1.4,1
					c0,0.4-0.2,1-0.7,1.6c-0.4,0.6-1,1.2-1.7,1.7c-0.6,0.5-1.4,0.9-2.4,1.3c-1,0.4-1.7,0.6-2.2,0.6c-0.6,0-0.9-0.3-1.1-0.9
					c0.5,0.1,0.9,0.1,1.2,0.1c1.2,0,2.3-0.3,3.3-1c1-0.7,1.5-1.4,1.5-2.2c0-0.6-0.4-0.8-1.1-0.8c-1.3,0-2.6,0.8-4,2.4
					c-1,1.1-1.8,2.4-2.4,3.9c-0.6,1.5-0.9,2.8-0.9,4c0,1.2,0.5,1.8,1.5,1.8c1.1,0,2.3-0.6,3.4-1.8
					C162.9,117.2,163.9,115.6,164.7,113.7z"/>
			</g>
			<g>
				<path class="st1" d="M177.2,118.8l0.3,0.5c-1.2,0.9-2.9,1.7-5.1,2.2c0.1-1.2,0.8-3.2,2.1-6.1c-1.5,1.8-3.1,3.3-4.7,4.4
					s-2.9,1.8-3.8,1.8c-0.8,0-1.2-0.5-1.2-1.6c0-1.8,0.8-3.7,2.4-5.8c1.6-2.1,3.6-3.8,6-5.1c2.7-1.5,5.4-2.3,8.1-2.3
					c0.4,0,0.6,0.1,0.6,0.4c0,0.2-0.2,0.7-0.5,1.3c-0.8-0.1-1.6-0.2-2.3-0.2c-3.6,0-6.7,1.4-9.3,4.2c-1.9,2.1-2.9,4.1-2.9,6.1
					c0,0.9,0.4,1.4,1,1.4c0.6,0,1.4-0.5,2.5-1.5c1.1-1,2.1-2.2,3-3.5c1.2-1.9,2-3.8,2.4-5.8c0.5,0.3,0.8,0.9,0.8,1.7
					c0,1.1-0.6,2.4-1.7,3.9c0.6-0.1,1.3-0.2,2.1-0.5l-0.1,0.3c-1.1,2.5-1.7,4-1.7,4.4c0,0.3,0.2,0.5,0.5,0.5
					C175.9,119.5,176.4,119.3,177.2,118.8z"/>
			</g>
			<g>
				<path class="st1" d="M193.4,107c-0.8,1.6-1.8,3.8-3,6.7s-1.8,4.5-1.8,5c0,0.4,0.2,0.6,0.6,0.6c0.3,0,0.8-0.1,1.4-0.3l0.2,0.5
					c-0.9,0.4-2.3,1.1-4.3,1.8l-0.5,0.2c0.3-1.9,0.9-4,1.8-6.1c-1.5,1.9-3,3.4-4.3,4.5s-2.5,1.6-3.4,1.6c-0.8,0-1.2-0.4-1.2-1.2
					c0-1,0.7-3,2.2-6l1.4-3c0.4-0.9,0.7-1.6,0.7-2c0-0.4-0.2-0.6-0.6-0.6c-0.2,0-0.5,0.1-1,0.2l-0.1-0.5l0.3-0.1
					c1.6-0.5,3-1,4.1-1.4c0,0.9-0.5,2.5-1.6,4.6l-1.5,3.1c-1.2,2.4-1.8,3.9-1.8,4.4c0,0.5,0.2,0.8,0.7,0.8c1.1,0,2.6-1.2,4.5-3.6
					c1.9-2.4,3.4-5,4.5-7.9l0.2-0.6C191.8,107.5,192.6,107.3,193.4,107z"/>
			</g>
			<g>
				<path class="st1" d="M201.9,106.8l-0.2,0.5h-2.5l-0.1,0.3c-0.2,0.5-0.8,1.8-1.8,4.1c-0.4,0.9-1,2.2-1.7,3.8
					c-0.9,1.9-1.3,3.1-1.3,3.6s0.3,0.8,0.8,0.8c0.6,0,1.5-0.4,2.6-1.1l0.3,0.5c-0.7,0.5-1.5,1-2.4,1.4s-1.6,0.6-2.2,0.6
					c-0.9,0-1.3-0.3-1.3-1c0-0.5,0.5-1.9,1.5-4.2l1.8-4.2c1-2.4,1.6-3.8,1.8-4.2l0.2-0.4h-2.3l0.3-0.5h0.2c1,0,1.7-0.2,2-0.5
					c0.4-0.3,0.8-1.2,1.4-2.7c0.2,0,0.3,0,0.4,0c0.6,0,1.1-0.1,1.7-0.2c-0.1,0.3-0.4,0.9-0.7,1.7l-0.5,1.3l-0.2,0.4L201.9,106.8
					L201.9,106.8L201.9,106.8z"/>
			</g>
			<g>
				<path class="st1" d="M204.9,107.2c0.2,0.5,0.3,1.1,0.3,1.8c0,1.4-0.3,3.5-1,6.2c1.9-2.4,3.6-4.4,5.2-5.8
					c1.6-1.4,2.9-2.1,3.9-2.1c0.7,0,1,0.6,1,1.7c0,2.9-1.7,6.2-5.1,9.8c-1.5,1.7-3,2.9-4.3,3.6c-1.4,0.8-2.9,1.3-4.7,1.6
					c-1.5,0.2-2.6,0.6-3.3,1.1s-1,1.1-1,2c0,0.6,0.3,1.2,1,1.5s1.5,0.6,2.5,0.6c1.3,0,2.4-0.3,3.5-0.9c-0.3,1.5-1.4,2.2-3.4,2.2
					c-1.2,0-2.2-0.3-3-0.9s-1.1-1.3-1.1-2.2c0-1.2,0.6-2.4,1.7-3.6c0.6-0.6,1.1-1,1.8-1.2c0.6-0.2,1.8-0.4,3.5-0.6
					c1.6-0.2,2.8-0.6,3.8-1.2c1.5-1,2.8-2.2,3.9-3.8c0.6-0.9,1.1-1.9,1.6-3c0.4-1.1,0.6-2.1,0.6-2.8c0-1-0.3-1.4-1-1.4
					c-1.1,0-2.6,1.2-4.6,3.5s-3.6,5-5,8.1l-0.2,0.3h-0.6l0.2-0.7c1.3-4.7,2-8.1,2-10.2c0-0.7-0.2-1.1-0.7-1.1
					c-0.2,0-0.5,0.1-0.8,0.2c-0.1,0-0.1,0.1-0.3,0.1l-0.2-0.5c0.1-0.1,0.2-0.1,0.3-0.1l1.7-0.8l1.7-0.9
					C204.7,107.4,204.8,107.3,204.9,107.2z"/>
			</g>
		</g>
		<g>
			<path class="st1" d="M98.5,98.8c0.2,0.2,0.4,0.4,0.7,0.6c-0.2,0.1-0.3,0.3-0.5,0.4c-0.1,0.1-0.2,0.2-0.3,0.3
				c-3.8,3.4-6.8,8.1-7,13.4c-0.1-2.7,0.6-5.4,1.8-7.8c1.1-2.1,2.4-3.9,4-5.6c0,0,0,0,0,0c0.3-0.3,0.6-0.6,0.8-0.9
				C98.3,99,98.4,98.9,98.5,98.8z"/>
		</g>
		<g>
			<path class="st1" d="M237.5,119.2c-2.1,5.5-6.3,9.6-10.8,12.7c-4.5,3.1-9.5,5.5-14.6,7.4c-5.1,1.9-10.3,3.3-15.6,4.4
				c-10.6,2-21.4,2.9-32.2,2.5c10.7-0.4,21.4-1.6,31.8-4.1c5.2-1.3,10.3-2.7,15.2-4.8c4.9-2,9.7-4.4,13.9-7.5
				c4.2-3.1,7.9-6.9,9.6-11.6c1.7-4.7,0.6-9.9-2.4-13.9c-3-4.1-7.3-7.3-11.8-9.8c-4.6-2.6-9.5-4.5-14.5-6.1c-5.2-1.7-10.6-3-16-3.9
				c-1.5-0.3-3.1-0.5-4.6-0.7c-3.5-0.5-7.1-0.9-10.6-1.1c-10.6-0.8-21.3-0.4-31.9,0.8c-10.6,1.3-21.1,3.7-30.8,8
				c-2.8,1.2-5.6,2.6-8.2,4.3c-0.3,0.2-0.7,0.4-1.1,0.7c-0.3,0.2-0.6,0.4-0.9,0.6c-0.4,0.3-0.7,0.5-1.1,0.8c0,0,0,0-0.1,0.1
				c0,0,0,0,0,0c-0.2-0.2-0.4-0.3-0.5-0.5l-0.2-0.2c0.7-0.6,1.3-1.1,2-1.6c0,0,0,0,0,0c2.9-2.2,6.1-4.1,9.4-5.6
				c9.8-4.7,20.4-7.4,31.1-9.1c10.7-1.7,21.6-2,32.4-1.3c5.3,0.3,10.6,0.9,15.8,1.8h0c0,0,0,0,0,0c1.3,0.2,2.5,0.4,3.7,0.7h0
				c4.2,0.8,8.4,1.9,12.4,3.2c5.2,1.7,10.3,3.8,15.1,6.5c4.8,2.7,9.3,6.1,12.7,10.8c1.7,2.3,2.9,5,3.4,7.9
				C238.8,113.4,238.6,116.5,237.5,119.2z"/>
		</g>
	</g>
</g>
<path class="st0" d="M99.2,95.6c1-1.4,1.8-2.8,2.3-4.3c1.7,0,3.1-0.3,4.5-1c1.1-0.6,2.2-1.4,3.2-2.5c1-1.1,1.5-1.9,1.5-2.6
	c0-0.8-0.4-1.3-1.2-1.5c0.1,0.4,0.2,0.8,0.2,1.1c0,1.5-0.7,2.7-2,3.4c-1.2,0.7-3.8,1-7.9,1c-5.8,0-9.6-0.2-11.2-0.5
	c-2.6-0.6-3.9-1.8-3.9-3.8c0-1.2,0.6-2.2,1.8-2.9c1.2-0.7,2.8-1.1,4.8-1.1c0.7,0,1.2,0.1,1.4,0.3c0.3,0.2,0.4,0.5,0.4,1
	c0,0.4-0.1,1-0.3,1.7l0.6,0.2c0.6-1.8,1.1-3.4,1.8-4.8c-0.6-0.1-1.2-0.1-1.7-0.1c-2.6,0-5,0.7-7.3,2.2C84.1,82.7,83,84.3,83,86
	c0,1.3,0.6,2.2,1.9,2.7c1.3,0.6,3.3,0.8,6.2,0.8c-0.3,0.5-0.9,0.8-1.9,0.9c-2.6,0.1-4.6,0.3-5.9,0.5c-1.3,0.2-2.5,0.6-3.7,1.2
	c-0.7,0.4-1.4,0.8-1.9,1.2c-1.4,1.2-2.2,2.7-2.3,4.5c0,0.2,0,0.3,0,0.5c0,1.7,0.7,3.1,2.2,4.1c1.4,1,3.3,1.5,5.8,1.5
	c2.3,0,4.7-0.6,7.1-1.7c1.4-0.7,2.8-1.4,4.1-2.4c0.9-0.7,1.8-1.4,2.7-2.3l0.3,0.3c0.3,0.3,0.7,0.6,1,0.9c0.2,0.2,0.4,0.4,0.7,0.6
	c0,0,0,0,0,0c1.6,1.5,3.2,3,4.7,4.5l0.4,0.4l0.3-0.3c0.6-0.7,1.2-1.3,1.6-1.8c0.9-0.9,1.5-1.6,1.8-2l-0.4-0.4
	c-1,1.1-1.7,1.6-2.1,1.6c-0.5,0-1.5-0.7-2.9-2.1c-0.7-0.6-1.2-1.1-1.6-1.4c0,0,0,0,0,0c-0.2-0.2-0.4-0.3-0.5-0.5l-0.2-0.2L99,96.3
	l-0.2-0.1l0.3-0.3C99.1,95.7,99.2,95.6,99.2,95.6z M97.9,95.3l-0.4-0.3c-2.9-2.3-5.3-3.4-7.2-3.4c-1.5,0-3,0.6-4.4,1.7
	c-0.4,0.3-0.7,0.6-1,0.9c-0.8,0.8-1.2,1.7-1.2,2.6c0,0.8,0.4,1.5,1.1,1.9c-0.1-0.6-0.1-1-0.1-1.3c0-1.2,0.3-2.2,1-3
	c0,0,0.1-0.1,0.1-0.1c0.7-0.8,1.7-1.2,2.9-1.2c1.1,0,2.4,0.4,3.9,1.1c0.6,0.3,1.1,0.6,1.6,0.9c0.9,0.6,1.7,1.2,2.4,1.9
	c-0.9,1.1-1.9,2-3,2.7c-0.7,0.5-1.4,0.9-2.2,1.3c-2,0.9-4,1.4-6.2,1.4c-2.3,0-4.2-0.5-5.6-1.5c-1.1-0.8-1.8-1.7-2-2.8
	c-0.1-0.3-0.1-0.7-0.1-1.1c0-1.4,0.5-2.6,1.5-3.6c0.5-0.4,1.1-0.8,1.8-1.2c1.8-0.9,4.7-1.3,8.7-1.3l5,0.1l4.3,0.1l0.9,0
	C99.3,93,98.6,94.3,97.9,95.3z"/>
<g>
	<path class="st0" d="M102.7,136.9v-6.5h0.8v3.1l-0.1,1.1l0.1,1.1v1.3L102.7,136.9L102.7,136.9z M105.2,136.9
		c-0.4,0-0.8-0.1-1.1-0.3c-0.3-0.2-0.6-0.4-0.8-0.8c-0.2-0.4-0.3-0.8-0.3-1.3c0-0.5,0.1-1,0.3-1.3s0.4-0.6,0.8-0.8
		c0.3-0.2,0.7-0.3,1.1-0.3c0.5,0,0.9,0.1,1.2,0.3c0.3,0.2,0.6,0.5,0.8,0.8c0.2,0.4,0.3,0.8,0.3,1.3s-0.1,0.9-0.3,1.3
		s-0.5,0.6-0.8,0.8C106.1,136.8,105.7,136.9,105.2,136.9z M105.2,136.2c0.3,0,0.6-0.1,0.8-0.2c0.2-0.1,0.4-0.3,0.6-0.6
		s0.2-0.5,0.2-0.9s-0.1-0.6-0.2-0.9s-0.3-0.4-0.6-0.6c-0.2-0.1-0.5-0.2-0.8-0.2c-0.3,0-0.6,0.1-0.8,0.2c-0.2,0.1-0.4,0.3-0.6,0.6
		c-0.1,0.2-0.2,0.5-0.2,0.9c0,0.3,0.1,0.6,0.2,0.9s0.3,0.4,0.6,0.6C104.6,136.1,104.8,136.2,105.2,136.2z"/>
	<path class="st0" d="M108.8,138.6c-0.2,0-0.4,0-0.7-0.1s-0.4-0.2-0.6-0.3l0.4-0.6c0.1,0.1,0.3,0.2,0.4,0.3s0.3,0.1,0.4,0.1
		c0.2,0,0.4-0.1,0.5-0.2c0.1-0.1,0.3-0.3,0.4-0.6l0.3-0.6l0.1-0.1l1.8-4.2h0.8l-2.3,5.1c-0.1,0.3-0.3,0.6-0.4,0.8
		c-0.2,0.2-0.3,0.3-0.6,0.4C109.3,138.6,109.1,138.6,108.8,138.6z M109.9,137l-2.1-4.8h0.9l1.8,4.2L109.9,137z"/>
	<path class="st0" d="M116,136.9v-6.2h0.7l2.8,4.7h-0.4l2.7-4.7h0.7l0,6.2h-0.8l0-4.8h0.2l-2.4,4.1h-0.4l-2.4-4.1h0.2v4.8H116z"/>
	<path class="st0" d="M126.4,136.9c-0.5,0-0.9-0.1-1.3-0.3c-0.4-0.2-0.7-0.5-0.9-0.9s-0.3-0.8-0.3-1.2s0.1-0.9,0.3-1.2
		c0.2-0.4,0.5-0.6,0.8-0.8c0.4-0.2,0.8-0.3,1.2-0.3c0.4,0,0.8,0.1,1.2,0.3s0.6,0.5,0.8,0.8c0.2,0.4,0.3,0.8,0.3,1.3c0,0,0,0.1,0,0.1
		c0,0.1,0,0.1,0,0.1h-4v-0.6h3.5l-0.3,0.2c0-0.3-0.1-0.6-0.2-0.8c-0.1-0.2-0.3-0.4-0.5-0.6c-0.2-0.1-0.5-0.2-0.8-0.2
		c-0.3,0-0.6,0.1-0.8,0.2c-0.2,0.1-0.4,0.3-0.5,0.6c-0.1,0.2-0.2,0.5-0.2,0.8v0.1c0,0.3,0.1,0.6,0.2,0.8c0.1,0.2,0.3,0.4,0.6,0.6
		c0.3,0.1,0.6,0.2,0.9,0.2c0.3,0,0.5-0.1,0.8-0.1c0.2-0.1,0.4-0.2,0.6-0.4l0.5,0.6c-0.2,0.3-0.5,0.4-0.8,0.6
		C127.2,136.9,126.8,136.9,126.4,136.9z"/>
	<path class="st0" d="M129.7,136.9v-6.5h0.9v6.5H129.7z"/>
	<path class="st0" d="M133.5,136.9c-0.4,0-0.6-0.1-0.9-0.2c-0.3-0.1-0.5-0.3-0.6-0.5s-0.2-0.4-0.2-0.7c0-0.3,0.1-0.5,0.2-0.7
		s0.3-0.4,0.6-0.5c0.3-0.1,0.6-0.2,1.1-0.2h1.5v0.6h-1.4c-0.4,0-0.7,0.1-0.9,0.2c-0.1,0.1-0.2,0.3-0.2,0.5c0,0.2,0.1,0.4,0.3,0.6
		c0.2,0.1,0.4,0.2,0.8,0.2c0.3,0,0.6-0.1,0.8-0.2s0.4-0.4,0.5-0.6l0.2,0.6c-0.1,0.3-0.3,0.5-0.6,0.7
		C134.3,136.9,134,136.9,133.5,136.9z M135.1,136.9v-1l0-0.2V134c0-0.4-0.1-0.6-0.3-0.8c-0.2-0.2-0.5-0.3-0.9-0.3
		c-0.3,0-0.6,0.1-0.8,0.1s-0.5,0.2-0.7,0.4l-0.4-0.6c0.2-0.2,0.5-0.3,0.9-0.4c0.3-0.1,0.7-0.1,1.1-0.1c0.6,0,1.1,0.2,1.5,0.5
		c0.4,0.3,0.5,0.8,0.5,1.4v2.8L135.1,136.9L135.1,136.9z"/>
	<path class="st0" d="M137.4,136.9v-4.7h0.8v1.3l-0.1-0.3c0.1-0.3,0.4-0.5,0.7-0.7c0.3-0.2,0.7-0.3,1.1-0.3c0.4,0,0.7,0.1,1,0.2
		s0.5,0.4,0.7,0.7s0.3,0.7,0.3,1.1v2.7H141v-2.6c0-0.4-0.1-0.8-0.3-1c-0.2-0.2-0.5-0.3-0.9-0.3c-0.3,0-0.6,0.1-0.8,0.2
		s-0.4,0.3-0.5,0.5c-0.1,0.2-0.2,0.5-0.2,0.9v2.4L137.4,136.9L137.4,136.9z"/>
	<path class="st0" d="M143.9,131.3c-0.2,0-0.3-0.1-0.4-0.2s-0.2-0.2-0.2-0.4c0-0.2,0.1-0.3,0.2-0.4s0.3-0.2,0.4-0.2s0.3,0.1,0.4,0.1
		c0.1,0.1,0.2,0.2,0.2,0.4c0,0.2-0.1,0.3-0.2,0.4C144.2,131.3,144,131.3,143.9,131.3z M143.4,136.9v-4.7h0.9v4.7H143.4z"/>
	<path class="st0" d="M148,136.9c-0.5,0-0.9-0.1-1.3-0.3c-0.4-0.2-0.7-0.5-0.9-0.9s-0.3-0.8-0.3-1.2s0.1-0.9,0.3-1.2
		c0.2-0.4,0.5-0.6,0.8-0.8s0.8-0.3,1.2-0.3c0.4,0,0.9,0.1,1.2,0.3c0.4,0.2,0.6,0.5,0.8,0.8c0.2,0.4,0.3,0.8,0.3,1.3c0,0,0,0.1,0,0.1
		c0,0.1,0,0.1,0,0.1h-4v-0.6h3.5l-0.3,0.2c0-0.3-0.1-0.6-0.2-0.8c-0.1-0.2-0.3-0.4-0.5-0.6c-0.2-0.1-0.5-0.2-0.8-0.2
		c-0.3,0-0.6,0.1-0.8,0.2c-0.2,0.1-0.4,0.3-0.5,0.6c-0.1,0.2-0.2,0.5-0.2,0.8v0.1c0,0.3,0.1,0.6,0.2,0.8c0.1,0.2,0.3,0.4,0.6,0.6
		c0.3,0.1,0.6,0.2,0.9,0.2c0.3,0,0.5-0.1,0.8-0.1c0.2-0.1,0.4-0.2,0.6-0.4l0.5,0.6c-0.2,0.3-0.5,0.4-0.8,0.6
		C148.7,136.9,148.4,136.9,148,136.9z"/>
	<path class="st0" d="M155.2,136.9l-2.1-6.2h0.9l1.9,5.7h-0.5l2-5.7h0.8l1.9,5.7h-0.4l1.9-5.7h0.8l-2.1,6.2h-0.9l-1.8-5.3h0.2
		l-1.8,5.3H155.2z"/>
	<path class="st0" d="M165.2,136.9c-0.5,0-0.9-0.1-1.3-0.3c-0.4-0.2-0.7-0.5-0.9-0.9s-0.3-0.8-0.3-1.2s0.1-0.9,0.3-1.2
		c0.2-0.4,0.5-0.6,0.8-0.8s0.8-0.3,1.2-0.3c0.4,0,0.9,0.1,1.2,0.3c0.4,0.2,0.6,0.5,0.8,0.8c0.2,0.4,0.3,0.8,0.3,1.3c0,0,0,0.1,0,0.1
		c0,0.1,0,0.1,0,0.1h-4v-0.6h3.5l-0.3,0.2c0-0.3-0.1-0.6-0.2-0.8c-0.1-0.2-0.3-0.4-0.5-0.6c-0.2-0.1-0.5-0.2-0.8-0.2
		c-0.3,0-0.6,0.1-0.8,0.2c-0.2,0.1-0.4,0.3-0.5,0.6c-0.1,0.2-0.2,0.5-0.2,0.8v0.1c0,0.3,0.1,0.6,0.2,0.8c0.1,0.2,0.3,0.4,0.6,0.6
		c0.3,0.1,0.6,0.2,0.9,0.2c0.3,0,0.5-0.1,0.8-0.1c0.2-0.1,0.4-0.2,0.6-0.4l0.5,0.6c-0.2,0.3-0.5,0.4-0.8,0.6
		C165.9,136.9,165.6,136.9,165.2,136.9z"/>
	<path class="st0" d="M170.4,136.7c-0.4,0-0.9-0.1-1.2-0.3c-0.4-0.2-0.6-0.5-0.9-0.8s-0.3-0.7-0.3-1.2s0.1-0.9,0.3-1.2
		c0.2-0.3,0.5-0.6,0.9-0.8s0.8-0.3,1.2-0.3c0.4,0,0.8,0.1,1.1,0.2s0.6,0.4,0.8,0.7s0.3,0.8,0.3,1.3c0,0.5-0.1,0.9-0.3,1.3
		c-0.2,0.3-0.5,0.6-0.8,0.8C171.2,136.6,170.8,136.7,170.4,136.7z M170.5,138.6c-0.4,0-0.8-0.1-1.3-0.2c-0.4-0.1-0.7-0.3-1-0.5
		l0.4-0.6c0.2,0.2,0.5,0.3,0.8,0.4c0.3,0.1,0.6,0.2,1,0.2c0.6,0,1-0.1,1.2-0.4s0.4-0.6,0.4-1.2v-1l0.1-0.9l0-0.9v-1.3h0.8v4
		c0,0.8-0.2,1.4-0.6,1.8C171.9,138.5,171.3,138.6,170.5,138.6z M170.5,136c0.3,0,0.6-0.1,0.8-0.2s0.4-0.3,0.6-0.5
		c0.1-0.2,0.2-0.5,0.2-0.8c0-0.3-0.1-0.6-0.2-0.8s-0.3-0.4-0.6-0.5c-0.2-0.1-0.5-0.2-0.8-0.2s-0.6,0.1-0.8,0.2s-0.4,0.3-0.6,0.5
		c-0.1,0.2-0.2,0.5-0.2,0.8c0,0.3,0.1,0.6,0.2,0.8s0.3,0.4,0.6,0.5C169.9,135.9,170.2,136,170.5,136z"/>
	<path class="st0" d="M174.6,136.9v-4.7h0.8v1.3l-0.1-0.3c0.1-0.3,0.4-0.5,0.7-0.7c0.3-0.2,0.7-0.3,1.1-0.3c0.4,0,0.7,0.1,1,0.2
		s0.5,0.4,0.7,0.7s0.3,0.7,0.3,1.1v2.7h-0.9v-2.6c0-0.4-0.1-0.8-0.3-1c-0.2-0.2-0.5-0.3-0.9-0.3c-0.3,0-0.6,0.1-0.8,0.2
		s-0.4,0.3-0.5,0.5c-0.1,0.2-0.2,0.5-0.2,0.9v2.4L174.6,136.9L174.6,136.9z"/>
	<path class="st0" d="M182.6,136.9c-0.5,0-0.9-0.1-1.3-0.3c-0.4-0.2-0.7-0.5-0.9-0.9s-0.3-0.8-0.3-1.2s0.1-0.9,0.3-1.2
		c0.2-0.4,0.5-0.6,0.8-0.8s0.8-0.3,1.2-0.3c0.4,0,0.9,0.1,1.2,0.3c0.4,0.2,0.6,0.5,0.8,0.8c0.2,0.4,0.3,0.8,0.3,1.3c0,0,0,0.1,0,0.1
		c0,0.1,0,0.1,0,0.1h-4v-0.6h3.5l-0.3,0.2c0-0.3-0.1-0.6-0.2-0.8c-0.1-0.2-0.3-0.4-0.5-0.6c-0.2-0.1-0.5-0.2-0.8-0.2
		c-0.3,0-0.6,0.1-0.8,0.2c-0.2,0.1-0.4,0.3-0.5,0.6c-0.1,0.2-0.2,0.5-0.2,0.8v0.1c0,0.3,0.1,0.6,0.2,0.8s0.3,0.4,0.6,0.6
		c0.3,0.1,0.6,0.2,0.9,0.2c0.3,0,0.5-0.1,0.8-0.1c0.2-0.1,0.4-0.2,0.6-0.4l0.5,0.6c-0.2,0.3-0.5,0.4-0.8,0.6
		C183.4,136.9,183,136.9,182.6,136.9z"/>
	<path class="st0" d="M185.9,136.9v-4.7h0.8v1.3l-0.1-0.3c0.1-0.3,0.4-0.6,0.6-0.7c0.3-0.2,0.7-0.3,1.1-0.3v0.8c0,0-0.1,0-0.1,0
		s-0.1,0-0.1,0c-0.4,0-0.8,0.1-1.1,0.4c-0.3,0.3-0.4,0.7-0.4,1.2v2.3L185.9,136.9L185.9,136.9z"/>
</g>
</svg>
